<svg xmlns="http://www.w3.org/2000/svg" xmlns:xlink="http://www.w3.org/1999/xlink" width="500" zoomAndPan="magnify" viewBox="0 0 375 374.999991" height="500" preserveAspectRatio="xMidYMid meet" version="1.0"><defs><clipPath id="351609c259"><path d="M 187.5 0 C 83.945312 0 0 83.945312 0 187.5 C 0 291.054688 83.945312 375 187.5 375 C 291.054688 375 375 291.054688 375 187.5 C 375 83.945312 291.054688 0 187.5 0 Z M 187.5 0 " clip-rule="nonzero"/></clipPath><clipPath id="fa0d6dcbd9"><path d="M 61.480469 50.148438 L 312.730469 50.148438 L 312.730469 323.898438 L 61.480469 323.898438 Z M 61.480469 50.148438 " clip-rule="nonzero"/></clipPath></defs><g clip-path="url(#351609c259)"><rect x="-37.5" width="450" fill="#3e3e34" y="-37.499999" height="449.999989" fill-opacity="1"/></g><g clip-path="url(#fa0d6dcbd9)"><path fill="#f3f1ec" d="M 293.351562 264.101562 L 312.5625 95.621094 L 187.078125 50.148438 L 61.59375 95.621094 L 80.804688 264.101562 L 187.078125 323.933594 Z M 137.933594 259.035156 L 108.523438 259.035156 L 187.078125 80.390625 L 265.699219 259.023438 L 236.347656 259.023438 L 220.523438 219.054688 L 153.753906 219.054688 Z M 137.933594 259.035156 " fill-opacity="1" fill-rule="nonzero"/></g><path fill="#f3f1ec" d="M 164.066406 194.433594 L 210.085938 194.433594 L 187.078125 138.457031 Z M 164.066406 194.433594 " fill-opacity="1" fill-rule="nonzero"/></svg>