<svg xmlns="http://www.w3.org/2000/svg" xmlns:xlink="http://www.w3.org/1999/xlink" width="500" zoomAndPan="magnify" viewBox="0 0 375 374.999991" height="500" preserveAspectRatio="xMidYMid meet" version="1.0"><defs><clipPath id="13f89568cf"><path d="M 187.5 0 C 83.945312 0 0 83.945312 0 187.5 C 0 291.054688 83.945312 375 187.5 375 C 291.054688 375 375 291.054688 375 187.5 C 375 83.945312 291.054688 0 187.5 0 Z M 187.5 0 " clip-rule="nonzero"/></clipPath><clipPath id="6eb95c9144"><path d="M 63.214844 63.214844 L 311.464844 63.214844 L 311.464844 311.464844 L 63.214844 311.464844 Z M 63.214844 63.214844 " clip-rule="nonzero"/></clipPath></defs><g clip-path="url(#13f89568cf)"><rect x="-37.5" width="450" fill="#3e3e34" y="-37.499999" height="449.999989" fill-opacity="1"/></g><g clip-path="url(#6eb95c9144)"><path fill="#f3f1ec" d="M 303.492188 299.351562 C 303.492188 301.632812 301.632812 303.492188 299.351562 303.492188 L 158.496094 303.492188 C 156.214844 303.492188 154.355469 301.632812 154.355469 299.351562 L 154.355469 208.210938 C 154.355469 205.929688 156.214844 204.066406 158.496094 204.066406 L 299.351562 204.066406 C 301.632812 204.066406 303.492188 205.929688 303.492188 208.210938 Z M 71.5 249.636719 L 71.5 212.839844 C 85.753906 222.808594 116.308594 228.019531 146.070312 228.8125 L 146.070312 270.191406 C 99.785156 268.929688 71.5 257.582031 71.5 249.636719 Z M 71.5 158.902344 C 86.726562 169.550781 120.679688 175.066406 154.355469 175.066406 C 188.03125 175.066406 221.996094 169.550781 237.210938 158.902344 L 237.210938 195.78125 L 158.496094 195.78125 C 151.636719 195.78125 146.070312 201.347656 146.070312 208.210938 L 146.070312 220.492188 C 99.785156 219.230469 71.5 207.871094 71.5 199.925781 Z M 71.5 105.046875 C 86.726562 115.695312 120.679688 121.210938 154.355469 121.210938 C 188.03125 121.210938 221.996094 115.695312 237.210938 105.046875 L 237.210938 146.070312 C 237.210938 154.515625 204.941406 166.78125 154.355469 166.78125 C 103.78125 166.78125 71.5 154.515625 71.5 146.070312 Z M 154.355469 71.5 C 204.941406 71.5 237.210938 83.765625 237.210938 92.210938 C 237.210938 100.660156 204.941406 112.925781 154.355469 112.925781 C 103.78125 112.925781 71.5 100.660156 71.5 92.210938 C 71.5 83.765625 103.78125 71.5 154.355469 71.5 Z M 299.351562 195.78125 L 245.496094 195.78125 L 245.496094 92.210938 C 245.496094 73.183594 199.648438 63.214844 154.355469 63.214844 C 109.058594 63.214844 63.214844 73.183594 63.214844 92.210938 L 63.214844 249.636719 C 63.214844 267.308594 104.234375 277.375 146.070312 278.507812 L 146.070312 299.351562 C 146.070312 306.210938 151.636719 311.78125 158.496094 311.78125 L 299.351562 311.78125 C 306.210938 311.78125 311.78125 306.210938 311.78125 299.351562 L 311.78125 208.210938 C 311.78125 201.347656 306.210938 195.78125 299.351562 195.78125 " fill-opacity="1" fill-rule="nonzero"/></g><path fill="#f3f1ec" d="M 235.996094 267.421875 C 234.378906 265.804688 231.757812 265.804688 230.136719 267.421875 C 228.519531 269.042969 228.519531 271.664062 230.136719 273.28125 L 231.042969 274.1875 C 230.363281 274.363281 229.652344 274.496094 228.925781 274.496094 C 224.359375 274.496094 220.636719 270.773438 220.636719 266.210938 L 220.636719 241.351562 C 220.636719 236.789062 224.359375 233.066406 228.925781 233.066406 C 233.488281 233.066406 237.210938 236.789062 237.210938 241.351562 L 237.210938 266.210938 C 237.210938 266.9375 237.082031 267.648438 236.902344 268.328125 Z M 228.925781 224.78125 C 219.78125 224.78125 212.351562 232.210938 212.351562 241.351562 L 212.351562 266.210938 C 212.351562 275.351562 219.78125 282.78125 228.925781 282.78125 C 231.984375 282.78125 234.832031 281.890625 237.289062 280.433594 L 238.421875 281.566406 C 239.230469 282.375 240.285156 282.78125 241.351562 282.78125 C 242.421875 282.78125 243.472656 282.375 244.28125 281.566406 C 245.898438 279.949219 245.898438 277.328125 244.28125 275.707031 L 243.148438 274.574219 C 244.605469 272.117188 245.496094 269.269531 245.496094 266.210938 L 245.496094 241.351562 C 245.496094 232.210938 238.066406 224.78125 228.925781 224.78125 " fill-opacity="1" fill-rule="nonzero"/><path fill="#f3f1ec" d="M 187.496094 233.066406 C 192.058594 233.066406 195.78125 236.789062 195.78125 241.351562 C 195.78125 243.632812 197.644531 245.496094 199.925781 245.496094 C 202.207031 245.496094 204.066406 243.632812 204.066406 241.351562 C 204.066406 232.210938 196.640625 224.78125 187.496094 224.78125 C 178.351562 224.78125 170.925781 232.210938 170.925781 241.351562 C 170.925781 250.496094 178.351562 257.921875 187.496094 257.921875 C 192.058594 257.921875 195.78125 261.644531 195.78125 266.210938 C 195.78125 270.773438 192.058594 274.496094 187.496094 274.496094 C 182.933594 274.496094 179.210938 270.773438 179.210938 266.210938 C 179.210938 263.925781 177.351562 262.066406 175.066406 262.066406 C 172.785156 262.066406 170.925781 263.925781 170.925781 266.210938 C 170.925781 275.351562 178.351562 282.78125 187.496094 282.78125 C 196.640625 282.78125 204.066406 275.351562 204.066406 266.210938 C 204.066406 257.066406 196.640625 249.636719 187.496094 249.636719 C 182.933594 249.636719 179.210938 245.914062 179.210938 241.351562 C 179.210938 236.789062 182.933594 233.066406 187.496094 233.066406 " fill-opacity="1" fill-rule="nonzero"/><path fill="#f3f1ec" d="M 282.78125 274.496094 L 262.066406 274.496094 L 262.066406 228.925781 C 262.066406 226.640625 260.207031 224.78125 257.921875 224.78125 C 255.640625 224.78125 253.78125 226.640625 253.78125 228.925781 L 253.78125 278.636719 C 253.78125 280.917969 255.640625 282.78125 257.921875 282.78125 L 282.78125 282.78125 C 285.0625 282.78125 286.921875 280.917969 286.921875 278.636719 C 286.921875 276.355469 285.0625 274.496094 282.78125 274.496094 " fill-opacity="1" fill-rule="nonzero"/></svg>