<svg xmlns="http://www.w3.org/2000/svg" xmlns:xlink="http://www.w3.org/1999/xlink" width="500" zoomAndPan="magnify" viewBox="0 0 375 374.999991" height="500" preserveAspectRatio="xMidYMid meet" version="1.0"><defs><clipPath id="3205cf13d9"><path d="M 187.5 0 C 83.945312 0 0 83.945312 0 187.5 C 0 291.054688 83.945312 375 187.5 375 C 291.054688 375 375 291.054688 375 187.5 C 375 83.945312 291.054688 0 187.5 0 Z M 187.5 0 " clip-rule="nonzero"/></clipPath><clipPath id="2971427919"><path d="M 51 62.054688 L 323 62.054688 L 323 311 L 51 311 Z M 51 62.054688 " clip-rule="nonzero"/></clipPath></defs><g clip-path="url(#3205cf13d9)"><rect x="-37.5" width="450" fill="#3e3e34" y="-37.499999" height="449.999989" fill-opacity="1"/></g><g clip-path="url(#2971427919)"><path fill="#f3f1ec" d="M 243.339844 62.554688 C 238.734375 62.398438 233.914062 63.203125 229.082031 64.769531 C 219.417969 67.902344 209.289062 74.007812 198.898438 82.460938 C 194.824219 85.777344 190.714844 89.5625 186.589844 93.582031 C 182.558594 89.664062 178.53125 85.96875 174.546875 82.726562 C 164.164062 74.28125 154.0625 68.183594 144.421875 65.058594 C 134.777344 61.929688 125.183594 61.832031 117.304688 66.382812 C 109.421875 70.933594 104.710938 79.285156 102.597656 89.199219 C 100.480469 99.113281 100.703125 110.917969 102.828125 124.136719 C 103.566406 128.726562 104.628906 133.542969 105.824219 138.449219 C 101.324219 139.816406 96.949219 141.25 92.894531 142.832031 C 80.660156 147.613281 70.535156 153.332031 63.160156 160.136719 C 55.785156 166.9375 51.027344 175.199219 51.027344 184.265625 C 51.027344 193.332031 55.785156 201.578125 63.160156 208.382812 C 70.535156 215.1875 80.660156 220.917969 92.894531 225.695312 C 97.230469 227.390625 101.925781 228.914062 106.773438 230.355469 C 105.027344 236.871094 103.617188 243.191406 102.652344 249.179688 C 100.527344 262.410156 100.304688 274.21875 102.421875 284.152344 C 104.542969 294.089844 109.257812 302.488281 117.175781 307.0625 C 125.09375 311.632812 134.734375 311.519531 144.398438 308.386719 C 154.0625 305.253906 164.179688 299.160156 174.570312 290.707031 C 178.605469 287.421875 182.6875 283.675781 186.773438 279.703125 C 190.878906 283.699219 194.980469 287.464844 199.035156 290.761719 C 209.421875 299.210938 219.53125 305.308594 229.175781 308.433594 C 238.816406 311.558594 248.402344 311.65625 256.28125 307.105469 C 264.160156 302.558594 268.875 294.207031 270.988281 284.292969 C 273.101562 274.378906 272.867188 262.570312 270.746094 249.355469 C 269.78125 243.347656 268.367188 237.015625 266.617188 230.484375 C 271.621094 229.007812 276.464844 227.441406 280.929688 225.695312 C 293.167969 220.917969 303.292969 215.1875 310.667969 208.382812 C 318.039062 201.578125 322.800781 193.332031 322.800781 184.265625 C 322.800781 175.199219 318.039062 166.9375 310.667969 160.136719 C 303.292969 153.332031 293.167969 147.613281 280.929688 142.832031 C 276.816406 141.226562 272.378906 139.773438 267.804688 138.394531 C 269.011719 133.457031 270.085938 128.605469 270.828125 123.984375 C 272.953125 110.757812 273.175781 98.9375 271.058594 89.003906 C 268.9375 79.066406 264.210938 70.679688 256.292969 66.105469 C 252.332031 63.820312 247.945312 62.707031 243.339844 62.554688 Z M 242.796875 74.574219 C 245.6875 74.652344 248.152344 75.339844 250.261719 76.554688 C 254.476562 78.992188 257.59375 83.730469 259.257812 91.527344 C 260.921875 99.328125 260.863281 109.863281 258.898438 122.082031 C 258.226562 126.265625 257.25 130.699219 256.144531 135.242188 C 244.066406 132.335938 230.832031 130.179688 216.730469 128.910156 C 209.644531 119.09375 202.363281 110.164062 195.023438 102.230469 C 198.902344 98.445312 202.757812 94.902344 206.523438 91.839844 C 216.121094 84.03125 225.210938 78.714844 232.796875 76.257812 C 236.589844 75.027344 239.910156 74.492188 242.796875 74.574219 Z M 130.730469 74.605469 C 133.636719 74.527344 136.960938 75.058594 140.765625 76.292969 C 148.371094 78.757812 157.476562 84.070312 167.085938 91.886719 C 170.773438 94.886719 174.542969 98.351562 178.34375 102.046875 C 170.949219 110.042969 163.617188 119.066406 156.484375 128.96875 C 142.433594 130.261719 129.246094 132.4375 117.222656 135.359375 C 116.121094 130.835938 115.15625 126.421875 114.488281 122.257812 C 112.523438 110.027344 112.476562 99.476562 114.140625 91.65625 C 115.808594 83.835938 118.953125 79.070312 123.207031 76.613281 C 125.335938 75.386719 127.824219 74.6875 130.730469 74.605469 Z M 186.773438 110.734375 C 191.585938 115.96875 196.398438 121.699219 201.167969 127.863281 C 196.480469 127.667969 191.734375 127.550781 186.914062 127.550781 C 181.996094 127.550781 177.160156 127.671875 172.378906 127.875 C 177.152344 121.703125 181.960938 115.972656 186.773438 110.734375 Z M 186.914062 139.476562 C 194.945312 139.476562 202.773438 139.808594 210.386719 140.363281 C 215.625 147.890625 220.746094 155.871094 225.621094 164.320312 C 229.910156 171.746094 233.789062 179.160156 237.320312 186.480469 C 233.75 193.898438 229.808594 201.410156 225.460938 208.9375 C 221.636719 215.5625 217.640625 221.855469 213.582031 227.921875 C 204.980469 228.640625 196.070312 229.042969 186.914062 229.042969 C 177.539062 229.042969 168.425781 228.617188 159.632812 227.867188 C 155.640625 221.886719 151.714844 215.675781 147.949219 209.15625 C 143.613281 201.648438 139.6875 194.160156 136.128906 186.757812 C 139.703125 179.3125 143.648438 171.769531 148.007812 164.21875 C 152.859375 155.8125 157.964844 147.875 163.175781 140.386719 C 170.871094 139.816406 178.789062 139.476562 186.914062 139.476562 Z M 225.601562 141.839844 C 235.332031 143.054688 244.46875 144.742188 252.972656 146.765625 C 250.445312 155.042969 247.335938 163.683594 243.570312 172.605469 C 241.125 167.890625 238.589844 163.15625 235.855469 158.417969 C 232.539062 152.675781 229.089844 147.191406 225.601562 141.839844 Z M 147.605469 141.933594 C 144.183594 147.1875 140.820312 152.558594 137.570312 158.1875 C 134.796875 162.988281 132.210938 167.78125 129.738281 172.558594 C 126.003906 163.691406 122.910156 155.097656 120.40625 146.871094 C 128.847656 144.84375 137.9375 143.164062 147.605469 141.933594 Z M 264.65625 149.902344 C 268.84375 151.171875 272.886719 152.492188 276.59375 153.941406 C 287.875 158.347656 296.796875 163.566406 302.582031 168.902344 C 308.363281 174.238281 310.875 179.328125 310.875 184.265625 C 310.875 189.203125 308.363281 194.292969 302.582031 199.628906 C 296.796875 204.964844 287.875 210.183594 276.59375 214.589844 C 272.472656 216.199219 267.945312 217.660156 263.238281 219.042969 C 259.878906 208.65625 255.59375 197.820312 250.492188 186.757812 C 256.355469 174.054688 261.09375 161.671875 264.65625 149.902344 Z M 108.976562 149.960938 C 112.496094 161.613281 117.171875 173.875 122.953125 186.445312 C 117.820312 197.570312 113.511719 208.46875 110.140625 218.914062 C 105.597656 217.566406 101.222656 216.148438 97.234375 214.589844 C 85.953125 210.183594 77.027344 204.964844 71.246094 199.628906 C 65.460938 194.292969 62.953125 189.203125 62.953125 184.265625 C 62.953125 179.328125 65.460938 174.238281 71.246094 168.902344 C 77.027344 163.566406 85.953125 158.347656 97.234375 153.941406 C 100.882812 152.515625 104.859375 151.210938 108.976562 149.960938 Z M 186.914062 157.136719 C 170.675781 157.136719 157.386719 170.425781 157.386719 186.664062 C 157.386719 202.902344 170.675781 216.191406 186.914062 216.191406 C 203.152344 216.191406 216.441406 202.902344 216.441406 186.664062 C 216.441406 170.425781 203.152344 157.136719 186.914062 157.136719 Z M 186.914062 168.949219 C 196.769531 168.949219 204.628906 176.808594 204.628906 186.664062 C 204.628906 196.519531 196.769531 204.382812 186.914062 204.382812 C 177.058594 204.382812 169.195312 196.519531 169.195312 186.664062 C 169.195312 176.808594 177.058594 168.949219 186.914062 168.949219 Z M 243.71875 200.621094 C 246.816406 207.953125 249.511719 215.125 251.769531 222.039062 C 244.667969 223.6875 237.105469 225.074219 229.152344 226.171875 C 231.441406 222.515625 233.703125 218.792969 235.910156 214.96875 C 238.679688 210.175781 241.25 205.386719 243.71875 200.621094 Z M 129.875 200.632812 C 132.359375 205.429688 134.945312 210.238281 137.730469 215.0625 C 139.910156 218.839844 142.136719 222.527344 144.398438 226.136719 C 136.464844 225.035156 128.925781 223.644531 121.847656 221.996094 C 124.097656 215.097656 126.792969 207.941406 129.875 200.632812 Z M 118.445312 233.460938 C 129.132812 235.992188 140.71875 237.9375 153 239.203125 C 161.203125 251.066406 169.742188 261.722656 178.34375 271.039062 C 174.5 274.789062 170.6875 278.304688 166.957031 281.339844 C 157.359375 289.148438 148.257812 294.453125 140.671875 296.910156 C 133.085938 299.371094 127.425781 299.046875 123.207031 296.609375 C 118.992188 294.175781 115.886719 289.4375 114.222656 281.640625 C 112.558594 273.839844 112.605469 263.316406 114.570312 251.097656 C 115.460938 245.550781 116.789062 239.617188 118.445312 233.460938 Z M 255.1875 233.507812 C 256.851562 239.695312 258.1875 245.660156 259.085938 251.234375 C 261.050781 263.464844 261.097656 274.003906 259.429688 281.824219 C 257.761719 289.644531 254.632812 294.417969 250.375 296.875 C 246.121094 299.332031 240.414062 299.664062 232.808594 297.199219 C 225.203125 294.734375 216.097656 289.410156 206.488281 281.59375 C 202.730469 278.539062 198.894531 275.003906 195.023438 271.222656 C 203.675781 261.871094 212.28125 251.160156 220.535156 239.226562 C 232.851562 237.96875 244.46875 236.035156 255.1875 233.507812 Z M 168.410156 240.414062 C 174.476562 240.746094 180.621094 240.96875 186.914062 240.96875 C 193 240.96875 198.945312 240.757812 204.816406 240.449219 C 198.8125 248.546875 192.695312 255.910156 186.601562 262.539062 C 180.511719 255.894531 174.40625 248.519531 168.410156 240.414062 Z M 168.410156 240.414062 " fill-opacity="1" fill-rule="nonzero"/></g></svg>