<svg xmlns="http://www.w3.org/2000/svg" xmlns:xlink="http://www.w3.org/1999/xlink" width="500" zoomAndPan="magnify" viewBox="0 0 375 374.999991" height="500" preserveAspectRatio="xMidYMid meet" version="1.0"><defs><clipPath id="049273bc7a"><path d="M 187.5 0 C 83.945312 0 0 83.945312 0 187.5 C 0 291.054688 83.945312 375 187.5 375 C 291.054688 375 375 291.054688 375 187.5 C 375 83.945312 291.054688 0 187.5 0 Z M 187.5 0 " clip-rule="nonzero"/></clipPath><clipPath id="1d7e220da7"><path d="M 81 78 L 294.460938 78 L 294.460938 297 L 81 297 Z M 81 78 " clip-rule="nonzero"/></clipPath></defs><g clip-path="url(#049273bc7a)"><rect x="-37.5" width="450" fill="#3e3e34" y="-37.499999" height="449.999989" fill-opacity="1"/></g><g clip-path="url(#1d7e220da7)"><path fill="#f3f1ec" d="M 187.792969 296.945312 C 186.515625 296.953125 185.269531 296.757812 184.054688 296.355469 L 113.058594 272.691406 C 112.011719 272.339844 111.035156 271.855469 110.121094 271.234375 C 109.210938 270.609375 108.402344 269.875 107.699219 269.027344 C 106.992188 268.175781 106.417969 267.246094 105.972656 266.238281 C 105.527344 265.226562 105.230469 264.175781 105.078125 263.082031 L 81.414062 91.511719 C 81.355469 91.097656 81.320312 90.675781 81.308594 90.253906 C 81.292969 89.832031 81.304688 89.410156 81.335938 88.992188 C 81.367188 88.570312 81.421875 88.152344 81.496094 87.738281 C 81.574219 87.324219 81.671875 86.914062 81.792969 86.507812 C 81.910156 86.105469 82.054688 85.707031 82.214844 85.320312 C 82.378906 84.929688 82.5625 84.550781 82.765625 84.179688 C 82.96875 83.8125 83.191406 83.453125 83.429688 83.109375 C 83.671875 82.761719 83.929688 82.429688 84.207031 82.113281 C 84.484375 81.792969 84.777344 81.492188 85.085938 81.203125 C 85.398438 80.917969 85.71875 80.648438 86.058594 80.394531 C 86.398438 80.144531 86.746094 79.910156 87.109375 79.695312 C 87.472656 79.480469 87.847656 79.285156 88.230469 79.113281 C 88.613281 78.9375 89.007812 78.785156 89.40625 78.652344 C 89.808594 78.519531 90.214844 78.40625 90.625 78.316406 C 91.039062 78.226562 91.453125 78.160156 91.871094 78.117188 C 92.292969 78.070312 92.710938 78.046875 93.132812 78.046875 L 282.453125 78.046875 C 282.875 78.046875 283.292969 78.070312 283.710938 78.117188 C 284.132812 78.160156 284.546875 78.226562 284.957031 78.316406 C 285.371094 78.40625 285.777344 78.515625 286.175781 78.648438 C 286.574219 78.78125 286.96875 78.9375 287.351562 79.109375 C 287.734375 79.285156 288.109375 79.480469 288.46875 79.695312 C 288.832031 79.910156 289.183594 80.140625 289.519531 80.394531 C 289.859375 80.644531 290.183594 80.914062 290.492188 81.199219 C 290.800781 81.488281 291.09375 81.789062 291.371094 82.105469 C 291.648438 82.425781 291.90625 82.753906 292.148438 83.101562 C 292.390625 83.445312 292.613281 83.804688 292.816406 84.171875 C 293.019531 84.542969 293.203125 84.921875 293.363281 85.308594 C 293.527344 85.699219 293.667969 86.09375 293.789062 86.496094 C 293.910156 86.902344 294.007812 87.308594 294.085938 87.722656 C 294.160156 88.140625 294.214844 88.554688 294.25 88.976562 C 294.28125 89.394531 294.289062 89.816406 294.277344 90.238281 C 294.265625 90.660156 294.230469 91.078125 294.171875 91.496094 L 270.507812 263.066406 C 270.359375 264.160156 270.0625 265.214844 269.617188 266.226562 C 269.171875 267.238281 268.597656 268.167969 267.890625 269.019531 C 267.1875 269.867188 266.378906 270.605469 265.464844 271.230469 C 264.554688 271.855469 263.574219 272.339844 262.527344 272.691406 L 191.53125 296.355469 C 190.316406 296.757812 189.070312 296.953125 187.792969 296.945312 Z M 127.519531 252.574219 L 187.792969 272.644531 L 248.066406 252.527344 L 268.875 101.714844 L 106.742188 101.714844 Z M 127.519531 252.574219 " fill-opacity="1" fill-rule="nonzero"/></g><path fill="#f3f1ec" d="M 170.042969 243.703125 C 168.179688 243.703125 166.417969 243.285156 164.75 242.453125 L 141.085938 230.621094 C 140.390625 230.273438 139.734375 229.863281 139.121094 229.386719 C 138.503906 228.910156 137.945312 228.375 137.433594 227.789062 C 136.925781 227.203125 136.476562 226.570312 136.09375 225.894531 C 135.707031 225.222656 135.390625 224.515625 135.144531 223.777344 C 134.898438 223.039062 134.726562 222.285156 134.628906 221.511719 C 134.53125 220.742188 134.511719 219.96875 134.566406 219.191406 C 134.621094 218.417969 134.753906 217.65625 134.957031 216.90625 C 135.164062 216.15625 135.441406 215.433594 135.789062 214.738281 C 136.136719 214.042969 136.546875 213.386719 137.023438 212.773438 C 137.5 212.160156 138.035156 211.597656 138.621094 211.089844 C 139.210938 210.578125 139.839844 210.132812 140.515625 209.746094 C 141.191406 209.363281 141.898438 209.046875 142.636719 208.804688 C 143.375 208.558594 144.128906 208.386719 144.898438 208.289062 C 145.671875 208.191406 146.445312 208.171875 147.21875 208.226562 C 147.996094 208.285156 148.757812 208.414062 149.507812 208.621094 C 150.257812 208.828125 150.980469 209.105469 151.675781 209.453125 L 158.210938 212.722656 L 158.210938 149.042969 L 134.546875 149.042969 C 133.769531 149.042969 133 148.964844 132.238281 148.816406 C 131.476562 148.664062 130.738281 148.4375 130.019531 148.140625 C 129.300781 147.84375 128.621094 147.480469 127.972656 147.046875 C 127.328125 146.617188 126.730469 146.125 126.179688 145.578125 C 125.632812 145.027344 125.140625 144.429688 124.710938 143.785156 C 124.277344 143.136719 123.914062 142.457031 123.617188 141.738281 C 123.320312 141.019531 123.09375 140.28125 122.941406 139.519531 C 122.792969 138.757812 122.714844 137.988281 122.714844 137.210938 C 122.714844 136.433594 122.792969 135.664062 122.941406 134.902344 C 123.09375 134.140625 123.320312 133.398438 123.617188 132.683594 C 123.914062 131.964844 124.277344 131.28125 124.710938 130.636719 C 125.140625 129.992188 125.632812 129.394531 126.179688 128.84375 C 126.730469 128.292969 127.328125 127.804688 127.972656 127.371094 C 128.621094 126.941406 129.300781 126.574219 130.019531 126.277344 C 130.738281 125.980469 131.476562 125.757812 132.238281 125.605469 C 133 125.453125 133.769531 125.378906 134.546875 125.378906 L 170.042969 125.378906 C 170.820312 125.378906 171.589844 125.453125 172.351562 125.605469 C 173.113281 125.757812 173.855469 125.980469 174.574219 126.277344 C 175.289062 126.574219 175.972656 126.941406 176.617188 127.371094 C 177.265625 127.804688 177.863281 128.292969 178.410156 128.84375 C 178.960938 129.394531 179.453125 129.992188 179.882812 130.636719 C 180.316406 131.28125 180.679688 131.964844 180.976562 132.683594 C 181.273438 133.398438 181.5 134.140625 181.648438 134.902344 C 181.800781 135.664062 181.878906 136.433594 181.878906 137.210938 L 181.878906 231.867188 C 181.878906 232.644531 181.800781 233.414062 181.648438 234.175781 C 181.5 234.9375 181.273438 235.679688 180.976562 236.398438 C 180.679688 237.113281 180.316406 237.796875 179.882812 238.441406 C 179.453125 239.089844 178.960938 239.6875 178.410156 240.234375 C 177.863281 240.785156 177.265625 241.277344 176.617188 241.707031 C 175.972656 242.140625 175.289062 242.503906 174.574219 242.800781 C 173.855469 243.097656 173.113281 243.324219 172.351562 243.472656 C 171.589844 243.625 170.820312 243.703125 170.042969 243.703125 Z M 170.042969 243.703125 " fill-opacity="1" fill-rule="nonzero"/><path fill="#f3f1ec" d="M 205.542969 243.703125 C 204.828125 243.699219 204.117188 243.636719 203.414062 243.503906 C 202.710938 243.375 202.023438 243.183594 201.355469 242.929688 C 200.683594 242.675781 200.042969 242.363281 199.433594 241.992188 C 198.820312 241.625 198.246094 241.203125 197.710938 240.726562 C 197.175781 240.253906 196.6875 239.734375 196.242188 239.171875 C 195.800781 238.605469 195.414062 238.007812 195.082031 237.375 C 194.75 236.742188 194.476562 236.085938 194.261719 235.402344 C 194.046875 234.71875 193.898438 234.023438 193.8125 233.3125 C 193.722656 232.601562 193.699219 231.890625 193.742188 231.175781 C 193.785156 230.460938 193.890625 229.753906 194.0625 229.0625 C 194.230469 228.367188 194.460938 227.691406 194.753906 227.039062 C 195.046875 226.386719 195.394531 225.761719 195.800781 225.171875 C 196.203125 224.582031 196.660156 224.035156 197.164062 223.527344 C 197.667969 223.019531 198.214844 222.5625 198.800781 222.152344 C 199.390625 221.746094 200.007812 221.390625 200.660156 221.097656 C 201.3125 220.800781 201.984375 220.566406 202.679688 220.390625 L 218.652344 216.402344 L 221.472656 196.371094 L 211.457031 196.371094 C 210.875 196.371094 210.296875 196.34375 209.71875 196.285156 C 209.140625 196.230469 208.566406 196.144531 207.996094 196.03125 C 207.425781 195.917969 206.863281 195.777344 206.304688 195.609375 C 205.75 195.4375 205.203125 195.242188 204.664062 195.019531 C 204.128906 194.796875 203.605469 194.550781 203.089844 194.277344 C 202.578125 194.003906 202.082031 193.703125 201.597656 193.378906 C 201.113281 193.058594 200.648438 192.710938 200.199219 192.34375 C 199.75 191.972656 199.320312 191.585938 198.90625 191.171875 C 198.496094 190.761719 198.105469 190.332031 197.738281 189.882812 C 197.371094 189.433594 197.023438 188.96875 196.699219 188.484375 C 196.378906 188 196.078125 187.503906 195.804688 186.988281 C 195.53125 186.476562 195.28125 185.953125 195.0625 185.414062 C 194.839844 184.878906 194.640625 184.332031 194.472656 183.777344 C 194.304688 183.21875 194.164062 182.65625 194.050781 182.085938 C 193.9375 181.515625 193.851562 180.941406 193.796875 180.363281 C 193.738281 179.785156 193.710938 179.203125 193.710938 178.625 L 193.710938 143.125 C 193.710938 142.546875 193.738281 141.964844 193.796875 141.386719 C 193.851562 140.808594 193.9375 140.234375 194.050781 139.664062 C 194.164062 139.09375 194.304688 138.53125 194.472656 137.972656 C 194.640625 137.417969 194.839844 136.871094 195.0625 136.335938 C 195.28125 135.796875 195.53125 135.273438 195.804688 134.757812 C 196.078125 134.246094 196.378906 133.75 196.699219 133.265625 C 197.023438 132.78125 197.371094 132.316406 197.738281 131.867188 C 198.105469 131.417969 198.496094 130.988281 198.90625 130.574219 C 199.320312 130.164062 199.75 129.773438 200.199219 129.40625 C 200.648438 129.039062 201.113281 128.691406 201.597656 128.367188 C 202.082031 128.046875 202.578125 127.746094 203.089844 127.472656 C 203.605469 127.199219 204.128906 126.949219 204.667969 126.730469 C 205.203125 126.507812 205.75 126.3125 206.304688 126.140625 C 206.863281 125.972656 207.425781 125.832031 207.996094 125.71875 C 208.566406 125.605469 209.140625 125.519531 209.71875 125.464844 C 210.296875 125.40625 210.875 125.378906 211.457031 125.378906 L 241.039062 125.378906 C 241.816406 125.378906 242.585938 125.453125 243.347656 125.605469 C 244.109375 125.757812 244.847656 125.980469 245.566406 126.277344 C 246.285156 126.574219 246.964844 126.941406 247.613281 127.371094 C 248.257812 127.804688 248.855469 128.292969 249.40625 128.84375 C 249.957031 129.394531 250.445312 129.992188 250.878906 130.636719 C 251.308594 131.28125 251.671875 131.964844 251.96875 132.683594 C 252.269531 133.398438 252.492188 134.140625 252.644531 134.902344 C 252.796875 135.664062 252.871094 136.433594 252.871094 137.210938 C 252.871094 137.988281 252.796875 138.757812 252.644531 139.519531 C 252.492188 140.28125 252.269531 141.019531 251.96875 141.738281 C 251.671875 142.457031 251.308594 143.136719 250.878906 143.785156 C 250.445312 144.429688 249.957031 145.027344 249.40625 145.578125 C 248.855469 146.125 248.257812 146.617188 247.613281 147.046875 C 246.964844 147.480469 246.285156 147.84375 245.566406 148.140625 C 244.847656 148.4375 244.109375 148.664062 243.347656 148.816406 C 242.585938 148.964844 241.816406 149.042969 241.039062 149.042969 L 217.375 149.042969 L 217.375 172.707031 L 228.296875 172.707031 C 228.875 172.707031 229.457031 172.734375 230.035156 172.792969 C 230.613281 172.847656 231.1875 172.933594 231.757812 173.046875 C 232.328125 173.160156 232.890625 173.300781 233.449219 173.472656 C 234.003906 173.640625 234.550781 173.835938 235.085938 174.058594 C 235.625 174.28125 236.148438 174.527344 236.664062 174.804688 C 237.175781 175.078125 237.671875 175.375 238.15625 175.699219 C 238.640625 176.019531 239.105469 176.367188 239.554688 176.734375 C 240.003906 177.105469 240.433594 177.496094 240.84375 177.90625 C 241.257812 178.316406 241.648438 178.746094 242.015625 179.195312 C 242.382812 179.644531 242.730469 180.113281 243.054688 180.59375 C 243.375 181.078125 243.675781 181.578125 243.949219 182.089844 C 244.222656 182.601562 244.46875 183.125 244.691406 183.664062 C 244.914062 184.199219 245.109375 184.746094 245.28125 185.304688 C 245.449219 185.859375 245.589844 186.421875 245.703125 186.992188 C 245.816406 187.5625 245.902344 188.136719 245.957031 188.714844 C 246.015625 189.292969 246.042969 189.875 246.042969 190.457031 C 246.042969 191.3125 245.980469 192.164062 245.855469 193.011719 L 240.921875 227.621094 C 240.753906 228.785156 240.421875 229.902344 239.921875 230.964844 C 239.425781 232.03125 238.78125 233 237.996094 233.875 C 237.207031 234.75 236.308594 235.488281 235.300781 236.09375 C 234.292969 236.699219 233.21875 237.144531 232.074219 237.429688 L 208.410156 243.347656 C 207.46875 243.582031 206.511719 243.703125 205.542969 243.703125 Z M 222.445312 189.617188 Z M 222.445312 189.617188 " fill-opacity="1" fill-rule="nonzero"/></svg>