<svg xmlns="http://www.w3.org/2000/svg" xmlns:xlink="http://www.w3.org/1999/xlink" width="500" zoomAndPan="magnify" viewBox="0 0 375 374.999991" height="500" preserveAspectRatio="xMidYMid meet" version="1.0"><defs><clipPath id="db5b7dbd68"><path d="M 187.5 0 C 83.945312 0 0 83.945312 0 187.5 C 0 291.054688 83.945312 375 187.5 375 C 291.054688 375 375 291.054688 375 187.5 C 375 83.945312 291.054688 0 187.5 0 Z M 187.5 0 " clip-rule="nonzero"/></clipPath><clipPath id="087d256d32"><path d="M 80.097656 89.863281 L 294.597656 89.863281 L 294.597656 284.863281 L 80.097656 284.863281 Z M 80.097656 89.863281 " clip-rule="nonzero"/></clipPath></defs><g clip-path="url(#db5b7dbd68)"><rect x="-37.5" width="450" fill="#3e3e34" y="-37.499999" height="449.999989" fill-opacity="1"/></g><g clip-path="url(#087d256d32)"><path fill="#f3f1ec" d="M 187.496094 285.132812 C 128.277344 285.132812 80.097656 241.332031 80.097656 187.496094 C 80.097656 133.664062 128.277344 89.863281 187.496094 89.863281 C 246.714844 89.863281 294.890625 133.664062 294.890625 187.496094 C 294.890625 241.332031 246.714844 285.132812 187.496094 285.132812 Z M 187.496094 109.390625 C 139.046875 109.390625 99.625 144.433594 99.625 187.496094 C 99.625 230.5625 139.046875 265.605469 187.496094 265.605469 C 235.945312 265.605469 275.367188 230.5625 275.367188 187.496094 C 275.367188 144.433594 235.945312 109.390625 187.496094 109.390625 Z M 187.496094 109.390625 " fill-opacity="1" fill-rule="nonzero"/></g><path fill="#f3f1ec" d="M 124.035156 226.550781 C 123.378906 226.550781 122.726562 226.488281 122.082031 226.359375 C 121.453125 226.234375 120.84375 226.046875 120.25 225.800781 C 119.660156 225.554688 119.097656 225.253906 118.5625 224.898438 C 118.03125 224.542969 117.539062 224.136719 117.085938 223.683594 C 116.632812 223.226562 116.230469 222.734375 115.875 222.199219 C 115.519531 221.667969 115.21875 221.105469 114.976562 220.511719 C 114.730469 219.917969 114.546875 219.308594 114.421875 218.679688 C 114.296875 218.050781 114.234375 217.414062 114.238281 216.773438 C 114.238281 216.132812 114.300781 215.496094 114.425781 214.871094 L 124.191406 166.054688 C 124.300781 165.503906 124.457031 164.964844 124.660156 164.441406 C 124.863281 163.917969 125.109375 163.417969 125.398438 162.9375 C 125.6875 162.453125 126.015625 162.003906 126.386719 161.578125 C 126.753906 161.152344 127.152344 160.765625 127.589844 160.410156 C 128.023438 160.054688 128.484375 159.738281 128.972656 159.464844 C 129.464844 159.1875 129.972656 158.957031 130.5 158.769531 C 131.03125 158.582031 131.570312 158.441406 132.125 158.347656 C 132.679688 158.253906 133.238281 158.207031 133.796875 158.207031 L 146.683594 158.207031 C 147.324219 158.210938 147.960938 158.242188 148.597656 158.304688 C 149.234375 158.367188 149.867188 158.460938 150.492188 158.589844 C 151.121094 158.714844 151.738281 158.871094 152.351562 159.054688 C 152.960938 159.242188 153.5625 159.457031 154.152344 159.703125 C 154.742188 159.949219 155.320312 160.21875 155.882812 160.523438 C 156.449219 160.824219 156.996094 161.152344 157.527344 161.507812 C 158.058594 161.863281 158.570312 162.242188 159.066406 162.648438 C 159.558594 163.054688 160.03125 163.484375 160.484375 163.9375 C 160.9375 164.386719 161.363281 164.859375 161.769531 165.355469 C 162.175781 165.847656 162.558594 166.363281 162.914062 166.894531 C 163.265625 167.425781 163.597656 167.972656 163.898438 168.535156 C 164.199219 169.097656 164.472656 169.675781 164.71875 170.265625 C 164.960938 170.855469 165.179688 171.457031 165.363281 172.070312 C 165.550781 172.679688 165.707031 173.300781 165.832031 173.925781 C 165.957031 174.554688 166.050781 175.183594 166.117188 175.820312 C 166.179688 176.457031 166.210938 177.09375 166.210938 177.734375 C 166.210938 178.808594 166.125 179.875 165.945312 180.933594 L 164.3125 190.695312 C 164.128906 191.828125 163.847656 192.9375 163.464844 194.019531 C 163.085938 195.101562 162.613281 196.144531 162.050781 197.144531 C 161.484375 198.144531 160.835938 199.085938 160.105469 199.96875 C 159.375 200.855469 158.570312 201.667969 157.695312 202.410156 C 156.820312 203.152344 155.882812 203.8125 154.890625 204.390625 C 153.898438 204.964844 152.863281 205.453125 151.785156 205.84375 C 150.707031 206.238281 149.601562 206.535156 148.472656 206.734375 C 147.34375 206.929688 146.203125 207.027344 145.054688 207.023438 L 135.945312 207.023438 L 133.605469 218.707031 C 133.496094 219.253906 133.339844 219.792969 133.140625 220.3125 C 132.9375 220.835938 132.691406 221.335938 132.402344 221.816406 C 132.113281 222.296875 131.789062 222.75 131.421875 223.171875 C 131.054688 223.59375 130.65625 223.984375 130.222656 224.339844 C 129.789062 224.695312 129.328125 225.007812 128.84375 225.285156 C 128.355469 225.5625 127.847656 225.792969 127.320312 225.980469 C 126.792969 226.171875 126.253906 226.3125 125.703125 226.40625 C 125.148438 226.503906 124.59375 226.550781 124.035156 226.550781 Z M 139.839844 187.496094 L 145.046875 187.496094 L 146.671875 177.734375 L 141.789062 177.734375 Z M 139.839844 187.496094 " fill-opacity="1" fill-rule="nonzero"/><path fill="#f3f1ec" d="M 221.667969 226.550781 C 221.019531 226.550781 220.375 226.488281 219.738281 226.359375 C 219.109375 226.234375 218.5 226.046875 217.910156 225.800781 C 217.316406 225.554688 216.753906 225.253906 216.222656 224.898438 C 215.691406 224.542969 215.195312 224.136719 214.746094 223.683594 C 214.292969 223.226562 213.886719 222.734375 213.53125 222.199219 C 213.175781 221.667969 212.875 221.105469 212.632812 220.511719 C 212.386719 219.917969 212.203125 219.308594 212.078125 218.679688 C 211.957031 218.050781 211.894531 217.414062 211.894531 216.773438 C 211.894531 216.132812 211.957031 215.496094 212.085938 214.871094 L 221.847656 166.054688 C 221.957031 165.503906 222.113281 164.96875 222.316406 164.445312 C 222.519531 163.921875 222.765625 163.421875 223.054688 162.941406 C 223.34375 162.460938 223.667969 162.007812 224.035156 161.585938 C 224.402344 161.160156 224.804688 160.773438 225.238281 160.417969 C 225.671875 160.0625 226.132812 159.746094 226.617188 159.472656 C 227.105469 159.195312 227.613281 158.964844 228.140625 158.773438 C 228.671875 158.585938 229.210938 158.445312 229.761719 158.351562 C 230.3125 158.253906 230.871094 158.207031 231.429688 158.207031 L 244.320312 158.207031 C 244.957031 158.210938 245.59375 158.242188 246.230469 158.304688 C 246.867188 158.367188 247.5 158.460938 248.125 158.589844 C 248.753906 158.714844 249.371094 158.871094 249.984375 159.054688 C 250.59375 159.242188 251.195312 159.457031 251.785156 159.703125 C 252.375 159.949219 252.953125 160.21875 253.515625 160.523438 C 254.082031 160.824219 254.628906 161.152344 255.160156 161.507812 C 255.691406 161.863281 256.203125 162.242188 256.699219 162.648438 C 257.191406 163.054688 257.664062 163.484375 258.117188 163.9375 C 258.570312 164.386719 259 164.859375 259.402344 165.355469 C 259.808594 165.847656 260.191406 166.363281 260.546875 166.894531 C 260.902344 167.425781 261.230469 167.972656 261.53125 168.535156 C 261.832031 169.097656 262.105469 169.675781 262.351562 170.265625 C 262.597656 170.855469 262.8125 171.457031 262.996094 172.070312 C 263.183594 172.679688 263.339844 173.300781 263.464844 173.925781 C 263.589844 174.554688 263.683594 175.183594 263.75 175.820312 C 263.8125 176.457031 263.84375 177.09375 263.84375 177.734375 C 263.847656 178.808594 263.757812 179.875 263.578125 180.933594 L 261.945312 190.695312 C 261.761719 191.828125 261.480469 192.9375 261.097656 194.019531 C 260.71875 195.101562 260.246094 196.144531 259.683594 197.144531 C 259.117188 198.144531 258.46875 199.085938 257.738281 199.96875 C 257.007812 200.855469 256.203125 201.667969 255.328125 202.410156 C 254.453125 203.152344 253.519531 203.8125 252.523438 204.390625 C 251.53125 204.964844 250.496094 205.453125 249.417969 205.84375 C 248.339844 206.238281 247.238281 206.535156 246.105469 206.734375 C 244.976562 206.929688 243.835938 207.027344 242.6875 207.023438 L 233.578125 207.023438 L 231.242188 218.707031 C 231.128906 219.253906 230.972656 219.792969 230.773438 220.3125 C 230.570312 220.835938 230.324219 221.335938 230.035156 221.816406 C 229.746094 222.296875 229.421875 222.75 229.054688 223.171875 C 228.6875 223.59375 228.289062 223.984375 227.855469 224.339844 C 227.421875 224.695312 226.960938 225.007812 226.476562 225.285156 C 225.988281 225.5625 225.480469 225.792969 224.953125 225.980469 C 224.425781 226.171875 223.886719 226.3125 223.335938 226.40625 C 222.785156 226.503906 222.226562 226.550781 221.667969 226.550781 Z M 237.472656 187.496094 L 242.679688 187.496094 L 244.304688 177.734375 L 239.421875 177.734375 Z M 237.472656 187.496094 " fill-opacity="1" fill-rule="nonzero"/><path fill="#f3f1ec" d="M 177.734375 207.023438 C 177.140625 207.023438 176.554688 206.972656 175.976562 206.867188 C 175.34375 206.753906 174.730469 206.578125 174.136719 206.34375 C 173.539062 206.109375 172.972656 205.816406 172.433594 205.46875 C 171.894531 205.121094 171.394531 204.726562 170.933594 204.28125 C 170.472656 203.835938 170.058594 203.347656 169.695312 202.820312 C 169.332031 202.292969 169.019531 201.738281 168.765625 201.148438 C 168.511719 200.558594 168.316406 199.953125 168.179688 199.328125 C 168.042969 198.699219 167.972656 198.066406 167.960938 197.425781 C 167.949219 196.785156 168 196.148438 168.117188 195.519531 L 177.878906 141.820312 C 177.992188 141.1875 178.167969 140.574219 178.402344 139.976562 C 178.636719 139.382812 178.929688 138.8125 179.277344 138.273438 C 179.621094 137.734375 180.019531 137.234375 180.464844 136.773438 C 180.910156 136.3125 181.394531 135.898438 181.921875 135.53125 C 182.449219 135.167969 183.007812 134.855469 183.597656 134.601562 C 184.183594 134.34375 184.792969 134.148438 185.417969 134.011719 C 186.046875 133.878906 186.679688 133.804688 187.320312 133.792969 C 187.964844 133.78125 188.597656 133.835938 189.230469 133.949219 C 189.863281 134.0625 190.476562 134.238281 191.070312 134.472656 C 191.667969 134.707031 192.238281 135 192.777344 135.347656 C 193.316406 135.695312 193.816406 136.09375 194.277344 136.539062 C 194.738281 136.984375 195.148438 137.46875 195.515625 137.996094 C 195.878906 138.523438 196.191406 139.082031 196.445312 139.671875 C 196.699219 140.261719 196.894531 140.867188 197.03125 141.496094 C 197.167969 142.121094 197.238281 142.757812 197.25 143.398438 C 197.261719 144.039062 197.207031 144.675781 197.09375 145.304688 L 187.328125 199.003906 C 187.230469 199.5625 187.082031 200.105469 186.882812 200.640625 C 186.6875 201.171875 186.445312 201.683594 186.160156 202.171875 C 185.875 202.664062 185.550781 203.125 185.183594 203.558594 C 184.820312 203.992188 184.417969 204.390625 183.984375 204.753906 C 183.550781 205.117188 183.085938 205.441406 182.59375 205.722656 C 182.101562 206.003906 181.589844 206.242188 181.058594 206.4375 C 180.523438 206.632812 179.980469 206.777344 179.421875 206.875 C 178.863281 206.972656 178.300781 207.023438 177.734375 207.023438 Z M 177.734375 207.023438 " fill-opacity="1" fill-rule="nonzero"/><path fill="#f3f1ec" d="M 202.140625 207.023438 C 201.597656 207.023438 201.058594 206.980469 200.523438 206.894531 C 199.894531 206.789062 199.277344 206.621094 198.679688 206.394531 C 198.078125 206.167969 197.507812 205.886719 196.964844 205.546875 C 196.421875 205.207031 195.914062 204.816406 195.449219 204.378906 C 194.980469 203.941406 194.5625 203.460938 194.1875 202.941406 C 193.816406 202.417969 193.496094 201.867188 193.234375 201.28125 C 192.96875 200.699219 192.765625 200.09375 192.621094 199.46875 C 192.476562 198.847656 192.394531 198.214844 192.371094 197.574219 C 192.351562 196.933594 192.394531 196.296875 192.5 195.664062 L 195.496094 177.734375 L 183.589844 177.734375 C 182.949219 177.734375 182.316406 177.671875 181.6875 177.546875 C 181.058594 177.421875 180.445312 177.238281 179.855469 176.992188 C 179.261719 176.746094 178.699219 176.445312 178.167969 176.089844 C 177.632812 175.734375 177.140625 175.328125 176.6875 174.875 C 176.234375 174.421875 175.828125 173.929688 175.472656 173.394531 C 175.117188 172.863281 174.816406 172.300781 174.570312 171.707031 C 174.324219 171.117188 174.140625 170.503906 174.015625 169.875 C 173.890625 169.246094 173.828125 168.613281 173.828125 167.972656 C 173.828125 167.332031 173.890625 166.695312 174.015625 166.066406 C 174.140625 165.4375 174.324219 164.828125 174.570312 164.234375 C 174.816406 163.644531 175.117188 163.082031 175.472656 162.546875 C 175.828125 162.015625 176.234375 161.519531 176.6875 161.066406 C 177.140625 160.613281 177.632812 160.210938 178.167969 159.851562 C 178.699219 159.496094 179.261719 159.195312 179.855469 158.953125 C 180.445312 158.707031 181.058594 158.519531 181.6875 158.394531 C 182.316406 158.269531 182.949219 158.207031 183.589844 158.207031 L 207.023438 158.207031 C 207.730469 158.207031 208.433594 158.285156 209.125 158.4375 C 209.816406 158.589844 210.484375 158.816406 211.128906 159.113281 C 211.773438 159.410156 212.375 159.773438 212.941406 160.203125 C 213.503906 160.632812 214.015625 161.121094 214.472656 161.660156 C 214.933594 162.203125 215.328125 162.785156 215.65625 163.414062 C 215.988281 164.039062 216.25 164.695312 216.4375 165.378906 C 216.625 166.0625 216.738281 166.757812 216.773438 167.464844 C 216.8125 168.175781 216.769531 168.878906 216.652344 169.578125 L 211.773438 198.867188 C 211.679688 199.433594 211.535156 199.984375 211.34375 200.527344 C 211.152344 201.066406 210.914062 201.585938 210.632812 202.085938 C 210.347656 202.582031 210.023438 203.050781 209.65625 203.492188 C 209.292969 203.933594 208.890625 204.339844 208.453125 204.710938 C 208.015625 205.082031 207.546875 205.410156 207.050781 205.699219 C 206.558594 205.988281 206.039062 206.230469 205.5 206.429688 C 204.964844 206.625 204.414062 206.773438 203.847656 206.875 C 203.28125 206.976562 202.714844 207.023438 202.140625 207.023438 Z M 202.140625 207.023438 " fill-opacity="1" fill-rule="nonzero"/></svg>