<svg xmlns="http://www.w3.org/2000/svg" xmlns:xlink="http://www.w3.org/1999/xlink" width="500" zoomAndPan="magnify" viewBox="0 0 375 374.999991" height="500" preserveAspectRatio="xMidYMid meet" version="1.0"><defs><clipPath id="ab7a1f95e9"><path d="M 187.5 0 C 83.945312 0 0 83.945312 0 187.5 C 0 291.054688 83.945312 375 187.5 375 C 291.054688 375 375 291.054688 375 187.5 C 375 83.945312 291.054688 0 187.5 0 Z M 187.5 0 " clip-rule="nonzero"/></clipPath><clipPath id="4265f36432"><path d="M 61.15625 49.230469 L 313.90625 49.230469 L 313.90625 325.980469 L 61.15625 325.980469 Z M 61.15625 49.230469 " clip-rule="nonzero"/></clipPath></defs><g clip-path="url(#ab7a1f95e9)"><rect x="-37.5" width="450" fill="#3e3e34" y="-37.499999" height="449.999989" fill-opacity="1"/></g><g clip-path="url(#4265f36432)"><path fill="#f3f1ec" d="M 187.496094 49.230469 C 183.199219 49.230469 178.902344 50.3125 175.074219 52.472656 L 73.820312 109.371094 C 66.070312 113.714844 61.257812 121.863281 61.257812 130.597656 L 61.257812 244.390625 C 61.257812 253.128906 66.070312 261.277344 73.820312 265.621094 L 175.074219 322.519531 C 178.902344 324.679688 183.199219 325.757812 187.496094 325.757812 C 191.792969 325.757812 196.089844 324.679688 199.917969 322.519531 L 301.175781 265.644531 C 308.921875 261.277344 313.738281 253.128906 313.738281 244.390625 L 313.738281 130.597656 C 313.738281 121.863281 308.921875 113.714844 301.175781 109.371094 L 199.917969 52.472656 C 196.089844 50.3125 191.792969 49.230469 187.496094 49.230469 Z M 187.496094 115.355469 C 210.226562 115.355469 231.246094 125.902344 244.863281 143.839844 L 218.515625 159.105469 C 210.601562 150.441406 199.355469 145.414062 187.496094 145.414062 C 164.296875 145.414062 145.417969 164.292969 145.417969 187.496094 C 145.417969 210.695312 164.296875 229.574219 187.496094 229.574219 C 199.355469 229.574219 210.601562 224.550781 218.515625 215.886719 L 244.863281 231.148438 C 231.246094 249.089844 210.226562 259.632812 187.496094 259.632812 C 147.71875 259.632812 115.359375 227.273438 115.359375 187.496094 C 115.359375 147.714844 147.71875 115.355469 187.496094 115.355469 Z M 247.613281 157.4375 L 259.632812 157.4375 L 259.632812 169.460938 L 271.65625 169.460938 L 271.65625 157.4375 L 283.679688 157.4375 L 283.679688 169.460938 L 295.703125 169.460938 L 295.703125 181.484375 L 283.679688 181.484375 L 283.679688 193.507812 L 295.703125 193.507812 L 295.703125 205.527344 L 283.679688 205.527344 L 283.679688 217.550781 L 271.65625 217.550781 L 271.65625 205.527344 L 259.632812 205.527344 L 259.632812 217.550781 L 247.613281 217.550781 L 247.613281 205.527344 L 235.589844 205.527344 L 235.589844 193.507812 L 247.613281 193.507812 L 247.613281 181.484375 L 235.589844 181.484375 L 235.589844 169.460938 L 247.613281 169.460938 Z M 259.632812 181.484375 L 259.632812 193.507812 L 271.65625 193.507812 L 271.65625 181.484375 Z M 259.632812 181.484375 " fill-opacity="1" fill-rule="nonzero"/></g></svg>