<svg xmlns="http://www.w3.org/2000/svg" xmlns:xlink="http://www.w3.org/1999/xlink" width="500" zoomAndPan="magnify" viewBox="0 0 375 374.999991" height="500" preserveAspectRatio="xMidYMid meet" version="1.0"><defs><clipPath id="4f52a31305"><path d="M 187.5 0 C 83.945312 0 0 83.945312 0 187.5 C 0 291.054688 83.945312 375 187.5 375 C 291.054688 375 375 291.054688 375 187.5 C 375 83.945312 291.054688 0 187.5 0 Z M 187.5 0 " clip-rule="nonzero"/></clipPath><clipPath id="25eea48396"><path d="M 80.316406 80.316406 L 294.816406 80.316406 L 294.816406 294.816406 L 80.316406 294.816406 Z M 80.316406 80.316406 " clip-rule="nonzero"/></clipPath></defs><g clip-path="url(#4f52a31305)"><rect x="-37.5" width="450" fill="#3e3e34" y="-37.499999" height="449.999989" fill-opacity="1"/></g><g clip-path="url(#25eea48396)"><path fill="#f3f1ec" d="M 187.496094 80.316406 C 128.296875 80.316406 80.316406 128.296875 80.316406 187.496094 C 80.316406 246.695312 128.296875 294.675781 187.496094 294.675781 C 246.695312 294.675781 294.675781 246.695312 294.675781 187.496094 C 294.675781 128.296875 246.695312 80.316406 187.496094 80.316406 Z M 245.300781 142.335938 C 240.324219 142.515625 236.90625 139.550781 236.753906 135.046875 C 236.699219 133.332031 237.226562 131.636719 238.253906 130.253906 C 239.371094 128.101562 239.59375 127.839844 239.566406 126.902344 C 239.46875 124.070312 235.179688 123.957031 234.003906 124.019531 C 217.90625 124.554688 213.683594 146.265625 210.234375 163.914062 L 208.554688 173.222656 C 217.828125 174.582031 224.402344 172.917969 228.0625 170.542969 C 233.226562 167.183594 226.617188 163.746094 227.457031 159.921875 C 228.242188 156.566406 231.207031 154.164062 234.65625 154.082031 C 238.585938 153.984375 241.390625 158.066406 241.300781 162.210938 C 241.164062 169.050781 232.082031 178.464844 213.933594 178.074219 C 211.707031 178.019531 209.671875 177.859375 207.769531 177.644531 L 204.347656 196.542969 C 201.277344 210.878906 197.195312 230.4375 182.609375 247.507812 C 170.085938 262.40625 157.367188 264.726562 151.671875 264.914062 C 141.015625 265.28125 133.949219 259.609375 133.699219 252.015625 C 133.457031 244.683594 139.941406 240.683594 144.203125 240.53125 C 149.902344 240.34375 153.832031 244.46875 153.976562 249.222656 C 154.136719 253.242188 152.027344 254.5 150.652344 255.242188 C 149.714844 255.972656 148.320312 256.75 148.375 258.394531 C 148.402344 259.117188 149.167969 260.734375 151.546875 260.691406 C 156.039062 260.53125 159.039062 258.296875 161.128906 256.8125 C 171.5 248.160156 175.5 233.089844 180.726562 205.671875 L 181.824219 199.007812 C 183.601562 190.085938 185.582031 180.144531 188.601562 170.230469 C 181.296875 164.71875 176.910156 157.90625 167.058594 155.226562 C 160.324219 153.394531 156.207031 154.957031 153.3125 158.609375 C 149.894531 162.925781 151.019531 168.570312 154.332031 171.875 L 159.796875 177.921875 C 166.507812 185.644531 170.148438 191.675781 168.785156 199.777344 C 166.605469 212.710938 151.195312 222.640625 132.976562 217.03125 C 117.410156 212.246094 114.496094 201.230469 116.363281 195.160156 C 118.023438 189.835938 122.257812 188.824219 126.410156 190.101562 C 130.859375 191.46875 132.59375 196.875 131.332031 201.027344 C 131.171875 201.457031 130.949219 202.207031 130.484375 203.1875 C 129.964844 204.332031 129.011719 205.339844 128.609375 206.679688 C 127.589844 209.929688 132.054688 212.253906 135.164062 213.199219 C 142.140625 215.328125 148.910156 211.699219 150.632812 206.0625 C 152.242188 200.902344 148.945312 197.277344 147.605469 195.898438 L 141.023438 188.84375 C 138.003906 185.496094 131.386719 176.125 134.601562 165.621094 C 135.949219 161.183594 138.628906 157.269531 142.292969 154.421875 C 149.417969 148.894531 158.789062 147.179688 167.417969 149.832031 C 178.199219 152.929688 183.367188 160.074219 190.09375 165.558594 C 193.847656 154.554688 199.054688 143.757812 206.894531 134.648438 C 213.96875 126.347656 223.464844 120.339844 234.359375 119.964844 C 245.238281 119.625 253.457031 124.535156 253.742188 132.34375 C 253.832031 135.65625 251.9375 142.132812 245.300781 142.335938 Z M 245.300781 142.335938 " fill-opacity="1" fill-rule="nonzero"/></g></svg>