<svg xmlns="http://www.w3.org/2000/svg" xmlns:xlink="http://www.w3.org/1999/xlink" width="500" zoomAndPan="magnify" viewBox="0 0 375 374.999991" height="500" preserveAspectRatio="xMidYMid meet" version="1.0"><defs><clipPath id="233e79a7a1"><path d="M 187.5 0 C 83.945312 0 0 83.945312 0 187.5 C 0 291.054688 83.945312 375 187.5 375 C 291.054688 375 375 291.054688 375 187.5 C 375 83.945312 291.054688 0 187.5 0 Z M 187.5 0 " clip-rule="nonzero"/></clipPath></defs><g clip-path="url(#233e79a7a1)"><rect x="-37.5" width="450" fill="#3e3e34" y="-37.499999" height="449.999989" fill-opacity="1"/></g><path fill="#f3f1ec" d="M 174.269531 92.824219 C 128.941406 97.847656 92.007812 134.421875 86.539062 179.679688 C 86.183594 182.523438 85.953125 185.375 85.84375 188.238281 C 85.734375 191.101562 85.746094 193.960938 85.882812 196.824219 C 86.019531 199.6875 86.277344 202.535156 86.660156 205.375 C 87.039062 208.214844 87.542969 211.03125 88.164062 213.828125 C 88.785156 216.625 89.527344 219.390625 90.386719 222.121094 C 91.246094 224.855469 92.21875 227.546875 93.308594 230.195312 C 94.402344 232.84375 95.601562 235.441406 96.914062 237.988281 C 98.226562 240.535156 99.648438 243.019531 101.171875 245.445312 C 102.699219 247.871094 104.324219 250.222656 106.054688 252.507812 C 107.78125 254.792969 109.605469 257 111.523438 259.128906 C 113.4375 261.257812 115.445312 263.300781 117.535156 265.257812 C 119.628906 267.214844 121.800781 269.078125 124.054688 270.847656 C 126.304688 272.617188 128.628906 274.289062 131.023438 275.859375 C 133.417969 277.433594 135.878906 278.898438 138.398438 280.257812 C 140.921875 281.617188 143.496094 282.867188 146.125 284.007812 C 148.75 285.148438 151.421875 286.171875 154.140625 287.082031 C 159.140625 287.882812 160.742188 284.785156 160.742188 282.089844 L 160.742188 265.191406 C 133.054688 271.207031 127.160156 251.804688 127.160156 251.804688 C 122.574219 240.207031 116.066406 237.105469 116.066406 237.105469 C 106.964844 230.910156 116.773438 231.113281 116.773438 231.113281 C 126.761719 231.820312 132.0625 241.410156 132.0625 241.410156 C 140.757812 256.601562 155.449219 252.101562 161.144531 249.703125 C 162.042969 243.207031 164.683594 238.804688 167.441406 236.308594 C 145.21875 233.808594 121.960938 225.210938 121.960938 187.136719 C 121.960938 176.042969 125.757812 167.148438 132.253906 160.050781 C 131.257812 157.554688 127.753906 147.160156 133.253906 133.664062 C 133.253906 133.664062 141.652344 130.964844 160.742188 143.863281 C 168.925781 141.660156 177.253906 140.558594 185.726562 140.558594 C 194.199219 140.558594 202.527344 141.660156 210.710938 143.863281 C 229.816406 130.964844 238.199219 133.664062 238.199219 133.664062 C 243.691406 147.160156 240.195312 157.554688 239.199219 160.050781 C 245.695312 167.128906 249.492188 176.042969 249.492188 187.136719 C 249.492188 225.3125 226.101562 233.710938 203.820312 236.207031 C 207.414062 239.308594 210.710938 245.40625 210.710938 254.699219 L 210.710938 282.089844 C 210.710938 284.785156 212.308594 287.980469 217.410156 287.082031 C 218.859375 286.597656 220.296875 286.078125 221.722656 285.527344 C 223.148438 284.976562 224.558594 284.394531 225.957031 283.777344 C 227.355469 283.160156 228.738281 282.511719 230.109375 281.835938 C 231.476562 281.15625 232.828125 280.445312 234.164062 279.703125 C 235.5 278.960938 236.820312 278.191406 238.121094 277.386719 C 239.421875 276.585938 240.703125 275.753906 241.964844 274.894531 C 243.230469 274.035156 244.472656 273.144531 245.691406 272.226562 C 246.914062 271.308594 248.117188 270.367188 249.292969 269.394531 C 250.472656 268.421875 251.628906 267.421875 252.761719 266.394531 C 253.894531 265.371094 255.003906 264.320312 256.089844 263.242188 C 257.171875 262.167969 258.230469 261.066406 259.265625 259.941406 C 260.300781 258.816406 261.308594 257.667969 262.289062 256.5 C 263.273438 255.328125 264.226562 254.136719 265.152344 252.921875 C 266.082031 251.707031 266.980469 250.46875 267.851562 249.214844 C 268.71875 247.957031 269.5625 246.683594 270.375 245.390625 C 271.1875 244.09375 271.96875 242.78125 272.71875 241.453125 C 273.472656 240.121094 274.191406 238.773438 274.882812 237.410156 C 275.574219 236.046875 276.230469 234.671875 276.859375 233.277344 C 277.484375 231.882812 278.082031 230.476562 278.644531 229.054688 C 279.207031 227.632812 279.734375 226.203125 280.230469 224.757812 C 280.730469 223.3125 281.191406 221.855469 281.621094 220.390625 C 282.054688 218.921875 282.449219 217.449219 282.8125 215.964844 C 283.175781 214.480469 283.503906 212.988281 283.796875 211.488281 C 284.089844 209.988281 284.351562 208.484375 284.578125 206.972656 C 284.800781 205.460938 284.992188 203.945312 285.148438 202.425781 C 285.304688 200.90625 285.425781 199.382812 285.511719 197.855469 C 285.597656 196.332031 285.648438 194.804688 285.664062 193.277344 C 285.679688 191.75 285.660156 190.21875 285.609375 188.695312 C 285.554688 187.167969 285.464844 185.640625 285.339844 184.117188 C 285.21875 182.59375 285.058594 181.074219 284.867188 179.558594 C 284.671875 178.042969 284.445312 176.535156 284.179688 175.027344 C 283.917969 173.523438 283.621094 172.023438 283.289062 170.53125 C 282.960938 169.042969 282.59375 167.558594 282.195312 166.082031 C 281.796875 164.609375 281.363281 163.144531 280.894531 161.6875 C 280.429688 160.234375 279.929688 158.789062 279.398438 157.355469 C 278.867188 155.925781 278.300781 154.503906 277.703125 153.097656 C 277.105469 151.691406 276.476562 150.300781 275.816406 148.921875 C 275.152344 147.546875 274.460938 146.183594 273.738281 144.839844 C 273.011719 143.492188 272.257812 142.164062 271.472656 140.851562 C 270.691406 139.542969 269.875 138.25 269.03125 136.976562 C 268.1875 135.703125 267.316406 134.449219 266.414062 133.214844 C 265.511719 131.980469 264.582031 130.765625 263.628906 129.574219 C 262.671875 128.382812 261.6875 127.214844 260.675781 126.070312 C 259.664062 124.921875 258.628906 123.800781 257.566406 122.703125 C 256.507812 121.601562 255.417969 120.527344 254.308594 119.480469 C 253.199219 118.429688 252.0625 117.40625 250.90625 116.410156 C 249.746094 115.414062 248.566406 114.445312 247.363281 113.5 C 246.164062 112.558594 244.9375 111.640625 243.695312 110.753906 C 242.449219 109.867188 241.1875 109.011719 239.902344 108.179688 C 238.617188 107.351562 237.316406 106.554688 235.996094 105.785156 C 234.675781 105.015625 233.339844 104.277344 231.984375 103.566406 C 230.632812 102.859375 229.261719 102.183594 227.875 101.539062 C 226.492188 100.890625 225.09375 100.277344 223.679688 99.699219 C 222.265625 99.117188 220.839844 98.566406 219.402344 98.050781 C 217.964844 97.535156 216.515625 97.054688 215.054688 96.605469 C 213.59375 96.15625 212.125 95.738281 210.644531 95.355469 C 209.164062 94.976562 207.675781 94.625 206.183594 94.3125 C 204.6875 94 203.183594 93.71875 201.675781 93.472656 C 200.167969 93.230469 198.65625 93.019531 197.136719 92.84375 C 195.621094 92.667969 194.097656 92.527344 192.574219 92.417969 C 191.050781 92.3125 189.523438 92.242188 187.996094 92.207031 C 186.46875 92.167969 184.941406 92.167969 183.414062 92.203125 C 181.886719 92.234375 180.359375 92.304688 178.835938 92.410156 C 177.308594 92.511719 175.789062 92.652344 174.269531 92.824219 Z M 174.269531 92.824219 " fill-opacity="1" fill-rule="nonzero"/></svg>