<svg xmlns="http://www.w3.org/2000/svg" xmlns:xlink="http://www.w3.org/1999/xlink" width="500" zoomAndPan="magnify" viewBox="0 0 375 374.999991" height="500" preserveAspectRatio="xMidYMid meet" version="1.0"><defs><clipPath id="76d78731a1"><path d="M 187.5 0 C 83.945312 0 0 83.945312 0 187.5 C 0 291.054688 83.945312 375 187.5 375 C 291.054688 375 375 291.054688 375 187.5 C 375 83.945312 291.054688 0 187.5 0 Z M 187.5 0 " clip-rule="nonzero"/></clipPath><clipPath id="4578539c49"><path d="M 118.074219 88.320312 L 256.824219 88.320312 L 256.824219 286.320312 L 118.074219 286.320312 Z M 118.074219 88.320312 " clip-rule="nonzero"/></clipPath></defs><g clip-path="url(#76d78731a1)"><rect x="-37.5" width="450" fill="#3e3e34" y="-37.499999" height="449.999989" fill-opacity="1"/></g><g clip-path="url(#4578539c49)"><path fill="#f3f1ec" d="M 177.578125 88.324219 L 157.746094 88.324219 C 135.835938 88.324219 118.074219 106.085938 118.074219 127.992188 C 118.074219 139.839844 123.269531 150.476562 131.503906 157.746094 C 123.269531 165.015625 118.074219 175.648438 118.074219 187.496094 C 118.074219 199.347656 123.269531 209.980469 131.503906 217.25 C 123.269531 224.519531 118.074219 235.152344 118.074219 247 C 118.074219 268.910156 135.835938 286.671875 157.746094 286.671875 C 179.652344 286.671875 197.414062 268.910156 197.414062 247 L 197.414062 221.859375 C 203.25 225.234375 210.023438 227.167969 217.25 227.167969 C 239.15625 227.167969 256.917969 209.40625 256.917969 187.496094 C 256.917969 175.648438 251.722656 165.015625 243.488281 157.746094 C 251.722656 150.476562 256.917969 139.839844 256.917969 127.992188 C 256.917969 106.085938 239.15625 88.324219 217.25 88.324219 Z M 197.414062 108.15625 L 197.414062 147.828125 L 217.25 147.828125 C 228.203125 147.828125 237.085938 138.949219 237.085938 127.992188 C 237.085938 117.039062 228.203125 108.15625 217.25 108.15625 Z M 177.578125 167.664062 L 157.746094 167.664062 C 146.789062 167.664062 137.910156 176.542969 137.910156 187.496094 C 137.910156 198.453125 146.789062 207.332031 157.746094 207.332031 L 177.578125 207.332031 Z M 157.746094 147.828125 L 177.578125 147.828125 L 177.578125 108.15625 L 157.746094 108.15625 C 146.789062 108.15625 137.910156 117.039062 137.910156 127.992188 C 137.910156 138.949219 146.789062 147.828125 157.746094 147.828125 Z M 197.414062 187.496094 C 197.414062 198.453125 206.292969 207.332031 217.25 207.332031 C 228.203125 207.332031 237.085938 198.453125 237.085938 187.496094 C 237.085938 176.542969 228.203125 167.664062 217.25 167.664062 C 206.292969 167.664062 197.414062 176.542969 197.414062 187.496094 Z M 157.746094 227.167969 L 177.578125 227.167969 L 177.578125 247 C 177.578125 257.957031 168.699219 266.835938 157.746094 266.835938 C 146.789062 266.835938 137.910156 257.957031 137.910156 247 C 137.910156 236.046875 146.789062 227.167969 157.746094 227.167969 Z M 157.746094 227.167969 " fill-opacity="1" fill-rule="evenodd"/></g></svg>