<svg xmlns="http://www.w3.org/2000/svg" xmlns:xlink="http://www.w3.org/1999/xlink" width="500" zoomAndPan="magnify" viewBox="0 0 375 374.999991" height="500" preserveAspectRatio="xMidYMid meet" version="1.0"><defs><g/><clipPath id="0d6c706c11"><path d="M 187.5 0 C 83.945312 0 0 83.945312 0 187.5 C 0 291.054688 83.945312 375 187.5 375 C 291.054688 375 375 291.054688 375 187.5 C 375 83.945312 291.054688 0 187.5 0 Z M 187.5 0 " clip-rule="nonzero"/></clipPath></defs><g clip-path="url(#0d6c706c11)"><rect x="-37.5" width="450" fill="#3e3e34" y="-37.499999" height="449.999989" fill-opacity="1"/></g><g fill="#ffffff" fill-opacity="1"><g transform="translate(46.486924, 219.21554)"><g><path d="M 12.9375 -26.75 C 5.453125 -26.75 -0.765625 -20.796875 -0.765625 -13.0625 C -0.765625 -5.453125 5.453125 0.890625 12.9375 0.890625 C 20.671875 0.890625 27.015625 -5.453125 27.015625 -13.0625 C 27.015625 -20.796875 20.671875 -26.75 12.9375 -26.75 Z M 12.9375 -26.75 "/></g></g></g><g fill="#ffffff" fill-opacity="1"><g transform="translate(75.9062, 219.21554)"><g><path d="M 90.03125 -20.03125 L 90.03125 -70 C 90.03125 -81.03125 80.90625 -90.296875 69.625 -90.296875 C 60.234375 -90.296875 52 -83.1875 50.09375 -74.5625 L 57.578125 -63.65625 C 57.953125 -62.90625 56.8125 -62.140625 56.4375 -62.90625 L 35.765625 -83.1875 C 31.953125 -87 26.375 -90.296875 20.296875 -90.296875 C 9.125 -90.296875 0 -81.03125 0 -70 L 0 -20.03125 C 0 -8.625 9.125 0.25 20.296875 0.25 C 29.796875 0.25 38.046875 -6.34375 39.953125 -15.09375 L 32.71875 -26.25 C 32.34375 -27.140625 33.484375 -28.28125 33.859375 -27.515625 C 40.953125 -20.03125 48.1875 -13.1875 55.671875 -5.953125 C 67.078125 5.578125 90.03125 -0.5 90.03125 -20.03125 Z M 90.03125 -20.03125 "/></g></g></g><g fill="#ffffff" fill-opacity="1"><g transform="translate(169.743544, 219.21554)"><g><path d="M 0 -69.75 L 0 -20.03125 C 0 -9.125 8.875 0 20.15625 0 L 53.515625 0 C 67.59375 0 73.546875 -12.171875 73.546875 -20.03125 C 73.546875 -25.359375 72.921875 -27.640625 71.65625 -29.796875 C 66.953125 -24.21875 60.359375 -22.953125 53.765625 -23.59375 C 52.875 -23.59375 52.875 -25.109375 53.765625 -25.109375 C 59.09375 -25.75 64.171875 -27.265625 67.96875 -31.453125 C 73.546875 -37.03125 74.8125 -46.796875 71.390625 -54.28125 C 66.328125 -48.953125 59.46875 -47.421875 52.5 -48.3125 C 51.609375 -48.703125 51.609375 -49.96875 52.5 -49.96875 C 60.109375 -50.21875 66.0625 -52.5 70.125 -59.09375 C 78.375 -71.90625 69.5 -90.15625 53.515625 -90.15625 L 20.421875 -90.15625 C 8.5 -90.15625 0 -81.03125 0 -69.75 Z M 0 -69.75 "/></g></g></g><g fill="#ffffff" fill-opacity="1"><g transform="translate(246.588703, 219.21554)"><g><path d="M 59.609375 -90.03125 L 19.65625 -90.03125 C 8.375 -90.03125 -0.375 -80.78125 -0.375 -69.625 C -0.375 -58.84375 8.375 -49.578125 19.65625 -49.578125 L 19.65625 -20.03125 C 19.65625 -8.75 28.78125 0.5 39.6875 0.5 C 50.859375 0.5 60.109375 -8.75 60.109375 -20.03125 L 59.984375 -49.578125 C 71.265625 -49.578125 80.015625 -58.84375 80.015625 -69.625 C 80.015625 -80.78125 70.890625 -90.03125 59.609375 -90.03125 Z M 59.609375 -90.03125 "/></g></g></g></svg>